<?xml version="1.0" encoding="UTF-8" standalone="no"?>
<!DOCTYPE svg PUBLIC "-//W3C//DTD SVG 20010904//EN"
              "http://www.w3.org/TR/2001/REC-SVG-20010904/DTD/svg10.dtd">

<svg xmlns="http://www.w3.org/2000/svg"
     width="512" height="512"
     viewBox="0 0 512 512">
  <path id="Selection"
        fill="#444444" stroke="#444444" stroke-width="1"
        d="M 34.00,96.00
           C 34.00,96.00 53.00,87.80 53.00,87.80
             53.00,87.80 86.00,74.60 86.00,74.60
             86.00,74.60 192.00,32.20 192.00,32.20
             192.00,32.20 236.00,14.60 236.00,14.60
             236.00,14.60 256.00,7.42 256.00,7.42
             256.00,7.42 276.00,14.60 276.00,14.60
             276.00,14.60 320.00,32.20 320.00,32.20
             320.00,32.20 426.00,74.60 426.00,74.60
             426.00,74.60 459.00,87.80 459.00,87.80
             459.00,87.80 478.00,96.00 478.00,96.00
             478.00,96.00 414.00,123.00 414.00,123.00
             417.19,124.07 428.50,127.70 430.40,129.70
             432.35,131.75 431.99,135.35 432.00,138.00
             432.00,138.00 432.00,156.00 432.00,156.00
             432.00,158.22 431.78,161.70 433.02,163.59
             435.01,166.59 439.95,166.43 445.67,173.04
             451.72,180.01 452.10,185.29 452.00,194.00
             451.94,198.45 451.65,200.92 449.62,205.00
             447.63,209.00 444.80,211.29 444.90,216.00
             444.90,216.00 448.75,240.00 448.75,240.00
             448.75,240.00 458.00,296.00 458.00,296.00
             458.00,296.00 432.00,296.00 432.00,296.00
             432.00,299.41 431.43,309.07 433.02,311.62
             435.03,314.84 442.19,316.78 446.08,325.00
             448.72,330.57 448.00,337.89 448.00,344.00
             448.00,344.00 489.00,344.00 489.00,344.00
             501.24,344.15 511.35,352.38 511.82,365.00
             512.07,367.24 512.05,371.86 511.82,374.00
             508.94,389.58 496.23,385.84 496.00,398.00
             496.00,398.00 496.00,456.00 496.00,456.00
             496.00,458.29 495.78,461.65 497.02,463.61
             498.81,466.43 505.40,468.31 509.59,476.00
             511.82,480.12 512.00,483.46 512.00,488.00
             512.00,503.83 502.35,511.98 487.00,512.00
             487.00,512.00 79.00,512.00 79.00,512.00
             67.97,511.98 56.88,509.11 47.00,504.24
             35.77,498.71 26.45,491.74 18.46,482.00
             -10.20,447.04 -5.54,394.12 28.00,364.17
             35.94,357.08 45.97,351.50 56.00,348.00
             56.00,348.00 56.00,346.00 56.00,346.00
             47.82,341.61 42.25,333.18 38.26,325.00
             25.45,298.73 31.61,264.07 55.00,245.67
             71.69,232.54 83.00,232.00 103.00,232.00
             103.00,232.00 128.00,232.00 128.00,232.00
             128.00,232.00 128.00,143.00 128.00,143.00
             128.00,140.70 128.21,137.26 126.98,135.27
             124.92,131.95 109.36,126.74 105.00,125.00
             105.00,125.00 58.00,106.20 58.00,106.20
             52.30,103.92 38.42,98.87 34.00,96.00 Z
           M 432.00,96.00
           C 432.00,96.00 390.00,78.60 390.00,78.60
             390.00,78.60 307.00,45.40 307.00,45.40
             307.00,45.40 272.00,31.40 272.00,31.40
             272.00,31.40 256.00,25.75 256.00,25.75
             256.00,25.75 240.00,31.40 240.00,31.40
             240.00,31.40 205.00,45.40 205.00,45.40
             205.00,45.40 122.00,78.60 122.00,78.60
             122.00,78.60 80.00,96.00 80.00,96.00
             80.00,96.00 123.00,113.80 123.00,113.80
             123.00,113.80 209.00,148.20 209.00,148.20
             209.00,148.20 242.00,161.40 242.00,161.40
             242.00,161.40 257.00,166.19 257.00,166.19
             257.00,166.19 268.00,162.20 268.00,162.20
             268.00,162.20 290.00,153.40 290.00,153.40
             290.00,153.40 337.00,134.60 337.00,134.60
             337.00,134.60 364.00,124.00 364.00,124.00
             364.00,124.00 364.00,122.00 364.00,122.00
             364.00,122.00 285.00,92.05 285.00,92.05
             285.00,92.05 264.00,84.05 264.00,84.05
             261.63,83.17 256.19,81.51 254.78,79.50
             252.92,76.84 257.20,67.51 258.00,64.00
             258.00,64.00 289.00,75.58 289.00,75.58
             289.00,75.58 346.00,97.20 346.00,97.20
             346.00,97.20 375.00,108.32 375.00,108.32
             375.00,108.32 389.00,112.71 389.00,112.71
             389.00,112.71 403.00,108.20 403.00,108.20
             403.00,108.20 432.00,96.00 432.00,96.00 Z
           M 401.00,232.00
           C 401.00,232.00 403.27,213.00 403.27,213.00
             402.69,210.36 399.34,206.21 397.90,203.00
             395.76,198.22 395.35,190.10 396.53,185.00
             397.80,179.47 401.72,173.95 406.01,170.33
             413.26,164.22 415.85,167.50 416.00,159.00
             416.06,155.33 416.91,144.42 414.43,141.99
             412.83,140.43 396.08,134.19 393.00,133.25
             390.57,132.50 387.69,131.93 385.60,133.86
             383.64,135.66 384.00,139.54 384.00,142.00
             384.00,142.00 384.00,232.00 384.00,232.00
             384.00,232.00 401.00,232.00 401.00,232.00 Z
           M 368.00,141.00
           C 368.00,141.00 339.00,151.80 339.00,151.80
             339.00,151.80 286.00,173.00 286.00,173.00
             286.00,173.00 266.00,181.00 266.00,181.00
             266.00,181.00 256.00,184.25 256.00,184.25
             256.00,184.25 246.00,181.00 246.00,181.00
             246.00,181.00 226.00,173.00 226.00,173.00
             226.00,173.00 173.00,151.80 173.00,151.80
             173.00,151.80 144.00,141.00 144.00,141.00
             144.00,141.00 144.00,229.00 144.00,229.00
             144.00,230.89 143.86,234.01 144.57,235.72
             147.23,242.13 164.52,251.53 171.00,254.75
             194.16,266.26 221.36,270.70 247.00,271.00
             247.00,271.00 256.00,271.66 256.00,271.66
             256.00,271.66 265.00,271.00 265.00,271.00
             265.00,271.00 272.00,271.00 272.00,271.00
             296.21,270.89 325.59,262.82 347.00,251.74
             352.04,249.13 365.35,240.71 367.43,235.72
             368.14,234.01 368.00,230.89 368.00,229.00
             368.00,229.00 368.00,141.00 368.00,141.00 Z
           M 421.00,181.43
           C 406.26,187.28 414.03,206.06 427.00,202.57
             435.08,200.39 437.60,190.05 431.77,184.23
             428.48,180.93 425.30,180.82 421.00,181.43 Z
           M 428.00,220.00
           C 428.00,220.00 420.00,220.00 420.00,220.00
             420.00,220.00 410.00,280.00 410.00,280.00
             410.00,280.00 438.00,280.00 438.00,280.00
             438.00,280.00 428.00,220.00 428.00,220.00 Z
           M 150.00,264.00
           C 147.46,260.95 134.30,249.80 131.00,248.60
             129.04,247.88 126.11,248.00 124.00,248.00
             99.79,247.95 76.62,245.27 59.32,266.00
             39.70,289.52 48.47,327.52 77.00,339.54
             84.69,342.77 95.67,343.99 104.00,344.00
             104.00,344.00 416.00,344.00 416.00,344.00
             419.75,343.99 424.55,344.15 427.77,341.91
             432.26,338.80 431.70,332.15 426.89,329.57
             423.71,327.86 419.51,328.01 416.00,328.00
             416.00,328.00 97.00,328.00 97.00,328.00
             63.78,327.95 53.00,288.83 76.01,270.68
             86.07,262.75 94.16,264.00 106.00,264.00
             106.00,264.00 150.00,264.00 150.00,264.00 Z
           M 398.00,248.00
           C 398.00,248.00 381.00,248.60 381.00,248.60
             381.00,248.60 362.00,264.00 362.00,264.00
             362.00,264.00 388.00,264.00 388.00,264.00
             388.00,264.00 394.99,262.40 394.99,262.40
             394.99,262.40 398.00,248.00 398.00,248.00 Z
           M 392.00,280.00
           C 392.00,280.00 329.00,280.00 329.00,280.00
             329.00,280.00 288.00,286.72 288.00,286.72
             272.02,288.71 254.21,288.19 238.00,288.00
             238.00,288.00 183.00,280.00 183.00,280.00
             183.00,280.00 104.00,280.00 104.00,280.00
             98.86,280.01 92.50,280.23 88.02,283.01
             79.01,288.57 78.49,302.11 87.04,308.35
             91.69,311.74 98.46,311.99 104.00,312.00
             104.00,312.00 416.00,312.00 416.00,312.00
             416.00,312.00 416.00,296.00 416.00,296.00
             416.00,296.00 390.00,296.00 390.00,296.00
             390.00,296.00 392.00,280.00 392.00,280.00 Z
           M 84.00,360.07
           C 84.00,360.07 73.00,361.44 73.00,361.44
             59.28,363.59 45.93,370.25 36.09,380.09
             10.14,406.04 10.11,451.49 37.04,476.83
             52.10,491.01 70.78,495.97 91.00,496.00
             91.00,496.00 480.00,496.00 480.00,496.00
             483.51,495.99 487.71,496.14 490.89,494.43
             495.70,491.85 496.26,485.20 491.77,482.09
             488.55,479.85 483.75,480.01 480.00,480.00
             480.00,480.00 81.00,480.00 81.00,480.00
             52.50,479.96 28.11,453.44 30.09,425.00
             31.39,406.23 43.25,389.18 60.00,380.81
             67.09,377.26 73.15,376.01 81.00,376.00
             81.00,376.00 480.00,376.00 480.00,376.00
             483.75,375.99 488.55,376.15 491.77,373.91
             496.26,370.80 495.70,364.15 490.89,361.57
             487.71,359.86 483.51,360.01 480.00,360.07
             480.00,360.07 218.00,360.07 218.00,360.07
             218.00,360.07 130.00,360.07 130.00,360.07
             130.00,360.07 84.00,360.07 84.00,360.07 Z
           M 480.00,392.00
           C 480.00,392.00 90.00,392.00 90.00,392.00
             81.30,392.01 72.72,393.07 65.00,397.31
             44.26,408.71 41.08,437.62 58.09,453.82
             66.67,461.98 78.62,463.98 90.00,464.00
             90.00,464.00 480.00,464.00 480.00,464.00
             480.00,464.00 480.00,424.00 480.00,424.00
             480.00,424.00 336.00,424.00 336.00,424.00
             336.00,424.00 336.00,408.00 336.00,408.00
             336.00,408.00 480.00,408.00 480.00,408.00
             480.00,408.00 480.00,392.00 480.00,392.00 Z
           M 80.00,432.00
           C 80.00,432.00 304.00,432.00 304.00,432.00
             304.00,432.00 304.00,448.00 304.00,448.00
             304.00,448.00 80.00,448.00 80.00,448.00
             80.00,448.00 80.00,432.00 80.00,432.00 Z" />
</svg>
